<?xml version="1.0" encoding="UTF-8" standalone="no"?>
<!-- Created with Inkscape (http://www.inkscape.org/) -->

<svg
   xmlns:dc="http://purl.org/dc/elements/1.1/"
   xmlns:cc="http://creativecommons.org/ns#"
   xmlns:rdf="http://www.w3.org/1999/02/22-rdf-syntax-ns#"
   xmlns:svg="http://www.w3.org/2000/svg"
   xmlns="http://www.w3.org/2000/svg"
   xmlns:sodipodi="http://sodipodi.sourceforge.net/DTD/sodipodi-0.dtd"
   xmlns:inkscape="http://www.inkscape.org/namespaces/inkscape"
   width="640.00024"
   height="640.00012"
   id="svg2"
   version="1.1"
   inkscape:version="0.48.5 r10040"
   sodipodi:docname="Barangay.svg">
  <title
     id="title6700">Logo of the Barangay</title>
  <defs
     id="defs4" />
  <sodipodi:namedview
     id="base"
     pagecolor="#ffffff"
     bordercolor="#666666"
     borderopacity="1.0"
     inkscape:pageopacity="0.0"
     inkscape:pageshadow="2"
     inkscape:zoom="0.72460937"
     inkscape:cx="70.720961"
     inkscape:cy="411.43994"
     inkscape:document-units="px"
     inkscape:current-layer="layer1"
     showgrid="false"
     inkscape:object-paths="true"
     inkscape:snap-intersection-paths="false"
     inkscape:object-nodes="false"
     inkscape:snap-smooth-nodes="false"
     inkscape:snap-bbox="true"
     inkscape:bbox-paths="true"
     inkscape:bbox-nodes="true"
     inkscape:snap-bbox-edge-midpoints="true"
     inkscape:snap-global="true"
     inkscape:snap-nodes="true"
     inkscape:snap-object-midpoints="true"
     inkscape:snap-center="true"
     fit-margin-top="0"
     fit-margin-left="0"
     fit-margin-right="0"
     fit-margin-bottom="0"
     inkscape:window-width="1366"
     inkscape:window-height="705"
     inkscape:window-x="-8"
     inkscape:window-y="-8"
     inkscape:window-maximized="1" />
  <metadata
     id="metadata7">
    <rdf:RDF>
      <cc:Work
         rdf:about="">
        <dc:format>image/svg+xml</dc:format>
        <dc:type
           rdf:resource="http://purl.org/dc/dcmitype/StillImage" />
        <dc:title>Logo of the Barangay</dc:title>
      </cc:Work>
    </rdf:RDF>
  </metadata>
  <g
     inkscape:label="Layer 1"
     inkscape:groupmode="layer"
     id="layer1"
     transform="translate(-5.75,-125.81249)">
    <path
       sodipodi:type="arc"
       style="opacity:0.98999999;color:#000000;fill:#ffffff;fill-opacity:1;fill-rule:nonzero;stroke:none;stroke-width:2;marker:none;visibility:visible;display:inline;overflow:visible;enable-background:accumulate"
       id="path3921-2"
       sodipodi:cx="296.82516"
       sodipodi:cy="452.46661"
       sodipodi:rx="3.0704401"
       sodipodi:ry="269.30884"
       d="m 299.8956,452.46661 c 0,148.73517 -1.37468,269.30884 -3.07044,269.30884 -1.69575,0 -3.07044,-120.57367 -3.07044,-269.30884 0,-148.73516 1.37469,-269.30883 3.07044,-269.30883 1.69576,0 3.07044,120.57367 3.07044,269.30883 z"
       transform="matrix(104.21695,0,0,1.1882172,-30608.455,-91.818728)" />
    <path
       style="opacity:0.98999999;color:#000000;fill:#0038a8;fill-opacity:1;fill-rule:nonzero;stroke:none;stroke-width:2;marker:none;visibility:visible;display:inline;overflow:visible;enable-background:accumulate"
       d="M 320.37666,125.85684 C 146.03936,128.62415 5.75,270.795 5.75,445.7945 c 0,89.95027 37.151097,171.22828 96.89963,229.36397 17.1535,-15.09731 81.27391,-74.28539 83.61584,-117.42804 8.99064,-165.62481 -32.01195,-351.37272 134.31395,-403.08615 z"
       id="path6691"
       inkscape:connector-curvature="0"
       sodipodi:nodetypes="cscscc" />
    <path
       style="opacity:0.98999999;color:#000000;fill:#ce1126;fill-opacity:1;fill-rule:nonzero;stroke:none;stroke-width:2;marker:none;visibility:visible;display:inline;overflow:visible;enable-background:accumulate"
       d="m 348.48541,126.63455 0,28.00973 c 3.12062,0.58951 7.96465,1.20087 10.94997,1.85366 4.47797,0.97919 8.79546,2.04145 12.97486,3.15796 1.39313,0.37217 2.75854,0.74578 4.11901,1.13275 2.73193,0.77672 5.39586,1.56774 7.99774,2.4028 1.29594,0.41591 2.54602,0.83999 3.81008,1.27004 0.01,0.003 0.0242,-0.003 0.0343,0 0.32286,0.1099 0.64031,0.23245 0.96111,0.34326 2.18043,0.75317 4.33318,1.53946 6.41878,2.33414 1.2011,0.45766 2.36547,0.90191 3.53548,1.37303 0.01,0.004 0.0245,-0.004 0.0343,0 1.15986,0.46726 2.30295,0.9614 3.43251,1.44168 3.42794,1.45687 6.69771,2.95833 9.85128,4.53098 1.04824,0.52273 2.07082,1.04391 3.08926,1.57898 1.03225,0.54196 2.01867,1.09323 3.02061,1.64763 0.9889,0.54719 1.958,1.08855 2.91762,1.64764 3.84815,2.24094 7.45858,4.57932 10.84672,7.00243 0.84515,0.60441 1.65425,1.20406 2.4714,1.81926 0.82478,0.62063 1.64053,1.22221 2.43708,1.85358 0.78946,0.62574 1.53778,1.25185 2.29979,1.88791 1.53131,1.27764 3.00581,2.56085 4.42793,3.8788 0.70789,0.65604 1.3783,1.3252 2.0595,1.99089 2.05026,2.00262 3.98738,4.02403 5.80094,6.10996 1.20557,1.38665 2.36325,2.80084 3.46682,4.22206 1.10358,1.42121 2.15425,2.87104 3.15791,4.32503 0.5018,0.72697 0.96445,1.42768 1.44165,2.16251 0.96396,1.48265 1.8806,2.94904 2.74601,4.46234 0.42881,0.74987 0.83069,1.50844 1.2357,2.26549 0.81007,1.51416 1.58338,3.05808 2.29978,4.59964 0.35819,0.77078 0.69457,1.52253 1.02975,2.29982 0.33515,0.77726 0.64872,1.55059 0.9611,2.33414 0.31827,0.79718 0.6318,1.56501 0.92677,2.36847 0.28988,0.78961 0.5562,1.57302 0.82381,2.36847 0.0651,0.19345 0.10775,0.38974 0.17163,0.58354 0.40497,1.22897 0.77974,2.46509 1.13272,3.70717 0.0494,0.17415 0.12321,0.34048 0.17163,0.51488 0.22715,0.81694 0.44706,1.61488 0.65217,2.43712 0.8099,3.24662 1.44537,6.53114 1.92221,9.85146 0.23841,1.66017 0.42524,3.33565 0.58352,5.01155 0.0791,0.83792 0.1465,1.66426 0.20596,2.50577 0.004,0.0572 -0.004,0.11442 0,0.17163 0.11366,1.63755 0.19944,3.25869 0.24027,4.90856 0.021,0.84804 0.0323,1.68914 0.0343,2.5401 3e-5,0.0113 -4e-5,0.023 0,0.0343 0.011,4.25494 -0.21067,8.52657 -0.65218,12.83779 -0.1766,1.72449 -0.37255,3.45282 -0.61785,5.18318 -0.49059,3.4607 -1.13501,6.92726 -1.88788,10.40067 -1.50353,6.93658 -3.5225,13.89989 -5.97256,20.80134 -0.61703,1.73809 -1.25041,3.45185 -1.92221,5.18317 -2.00358,5.16354 -4.24015,10.30689 -6.69338,15.37789 -1.63548,3.38068 -3.36858,6.73581 -5.18308,10.05742 -5.44351,9.96481 -11.64325,19.62434 -18.39823,28.79921 -1.12587,1.5291 -2.27749,3.03011 -3.43251,4.53099 -1.16038,1.50827 -2.31344,2.98436 -3.50115,4.46233 -2.36407,2.94182 -4.78275,5.83908 -7.24259,8.65007 -3.6953,4.22281 -7.4972,8.26424 -11.36159,12.15128 -2.5723,2.58779 -5.16537,5.09622 -7.79179,7.51731 -2.62022,2.41492 -5.27159,4.76773 -7.92908,7.00243 -2.66387,2.24006 -5.34738,4.37426 -8.03207,6.4189 1.56789,-0.004 3.13362,0.004 4.66821,0.0343 4.60377,0.0902 9.04564,0.332 13.35245,0.72084 1.43559,0.1296 2.8534,0.2845 4.2563,0.44623 2.80584,0.32349 5.56199,0.71827 8.23801,1.16707 1.33801,0.22441 2.64159,0.46591 3.94738,0.72084 0.011,0.002 0.0234,-0.002 0.0343,0 0.21981,0.043 0.43327,0.0935 0.65217,0.13731 3.67037,0.73481 7.22461,1.57075 10.64077,2.54009 1.22431,0.3474 2.41218,0.72194 3.60413,1.09842 1.17842,0.37175 2.31986,0.73311 3.46683,1.13275 2.29404,0.79931 4.52419,1.66676 6.69339,2.57442 1.08459,0.45384 2.13862,0.92723 3.19223,1.40736 1.06326,0.48415 2.0917,0.96562 3.12358,1.476 1.02278,0.50589 2.02848,1.01353 3.0206,1.54465 0.009,0.004 0.0255,-0.004 0.0343,0 0.98301,0.52661 1.93028,1.09678 2.88331,1.64763 0.009,0.006 0.0257,-0.005 0.0343,0 0.95274,0.55107 1.89172,1.10715 2.81465,1.68196 0.009,0.005 0.026,-0.005 0.0343,0 0.92281,0.5751 1.81856,1.1866 2.71168,1.78493 0.90917,0.60871 1.79877,1.22137 2.67736,1.85359 1.74198,1.25348 3.42305,2.53604 5.04578,3.8788 0.81137,0.67137 1.58665,1.36664 2.36843,2.05954 0.007,0.005 0.0279,-0.005 0.0343,0 0.77516,0.68741 1.51925,1.38581 2.26545,2.09386 1.51118,1.43318 2.96584,2.9134 4.35929,4.42801 0.69396,0.75427 1.36017,1.49182 2.02517,2.26549 0.67582,0.78547 1.31042,1.56354 1.95653,2.36847 1.90834,2.37748 3.70286,4.84228 5.35471,7.38002 0.55069,0.84596 1.09076,1.67738 1.61327,2.54009 0.005,0.009 -0.005,0.026 0,0.0343 0.51709,0.85437 1.0207,1.70416 1.51031,2.57443 1.48889,2.64481 2.84696,5.35304 4.08468,8.13518 0.41132,0.92439 0.78315,1.84188 1.16705,2.78037 0.77409,1.89028 1.49873,3.78812 2.16248,5.73239 0.65889,1.93006 1.2678,3.89066 1.81923,5.86968 1.10285,3.95805 1.99697,7.98854 2.67735,12.11696 0.34019,2.0642 0.62169,4.14683 0.85813,6.24726 0.11832,1.05028 0.21631,2.09943 0.30893,3.15796 0.46491,5.30325 0.61504,10.69658 0.44622,16.16738 -0.0336,1.0919 -0.079,2.16397 -0.1373,3.26094 -1.74687,32.91733 -14.62747,67.97583 -36.52186,98.06837 -0.005,0.008 0.005,0.0268 0,0.0343 -13.85905,19.04299 -31.3428,36.10241 -51.89948,49.32596 -2.16458,1.39256 -4.35806,2.74465 -6.59041,4.05042 -11.16232,6.52851 -23.17524,11.92098 -35.93834,15.96143 -2.54249,0.80443 -5.12082,1.57242 -7.72314,2.26549 -9.15501,2.43991 -18.66288,4.16995 -28.52412,5.11452 -2.81421,0.26958 -5.64366,0.47964 -8.5126,0.61786 -3.20093,0.14885 -6.36931,0.22318 -9.50805,0.24028 -3.13875,0.017 -6.26229,-0.0309 -9.33642,-0.1373 -1.5256,-0.0528 -3.05599,-0.12421 -4.56523,-0.20595 -0.0114,-6.3e-4 -0.0229,6.2e-4 -0.0343,0 -1.50896,-0.082 -3.00428,-0.16476 -4.49658,-0.27461 -0.0114,-8.4e-4 -0.023,8.5e-4 -0.0343,0 -4.51055,-0.33268 -8.93103,-0.80388 -13.2838,-1.37302 -2.71391,-0.35493 -5.38206,-0.72896 -8.03206,-1.16708 -0.18231,-0.0301 -0.3672,-0.0725 -0.5492,-0.10292 -0.0111,-0.002 -0.0232,0.002 -0.0343,0 -1.41434,-0.23714 -2.79207,-0.49585 -4.18766,-0.75516 -2.79123,-0.51872 -5.55792,-1.08068 -8.27234,-1.68196 -1.34623,-0.29817 -2.68914,-0.60983 -4.01602,-0.92679 -0.011,-0.002 -0.0235,0.002 -0.0343,0 -1.32665,-0.31709 -2.64039,-0.66057 -3.94739,-0.99545 -0.011,-0.003 -0.0236,0.003 -0.0343,0 -7.90516,-2.02655 -15.43818,-4.35136 -22.58589,-6.89945 -4.76534,-1.699 -9.36004,-3.50598 -13.76434,-5.3548 -4.40409,-1.84852 -8.60813,-3.76533 -12.63162,-5.69806 -3.33201,-1.60073 -6.48357,-3.22257 -9.54236,-4.83991 -0.63368,-0.33496 -1.30053,-0.66074 -1.92221,-0.99545 -0.009,-0.004 -0.0253,0.004 -0.0343,0 -27.17528,-14.63482 -42.80323,-28.8677 -42.80323,-28.8677 l -33.63857,34.77188 c 55.40854,45.97575 126.57504,73.62851 204.19976,73.62851 176.72665,0 319.97818,-143.28832 319.97818,-320.018 0,-169.08597 -131.13802,-307.49955 -297.25526,-319.15995 z"
       id="path3921-8"
       inkscape:connector-curvature="0"
       sodipodi:nodetypes="ccsscsccsscccscscscscscssscccscccccccsscccsccsssssssccssccsccssscccscsscscccccccsscccccsccccccsssccccccccccsccsccccccccccccccccccccccssc" />
  </g>
</svg>
